#!OML:ASF I:\Actors\actors\Patient Classification 1\Patient 1\Session 1\Subject1.ASF
:FULLY-SPECIFIED
:DEGREES
791
root -0.248814 17.7592 8.16533 20.0164 7.4052 -12.8949
lowerback 15.1597 3.27917 6.7616
upperback 6.82602 5.20465 0.750255
thorax -0.674709 2.71321 -3.78217
lowerneck -1.07099 -13.087 -5.05698
upperneck 8.32215 -20.4028 28.1658
head 6.34347 -9.25183 8.27898
rclavicle 4.90998e-014 -2.20651e-014
rhumerus 65.9259 9.97915 19.4861
rradius 126.812
rwrist -75.1336
rhand 72.9591 99.3416
rfingers 7.12502
rthumb 72.2735 -22.6816
lclavicle 4.90998e-014 -2.20651e-014
lhumerus -37.4784 -55.2254 101.59
lradius 98.0206
lwrist 38.9616
lhand -16.4365 -19.7652
lfingers 7.12502
lthumb 9.77906 9.98771
rfemur -21.393 15.6788 27.4697
rtibia 8.98783
rfoot -11.7689 -24.3386
rtoes 2.68014
lfemur -20.8697 -38.98 12.7838
ltibia -1.34511
lfoot -12.3946 48.6463
ltoes 2.68443
792
root -0.246278 17.7594 8.15424 19.964 7.32103 -12.7994
lowerback 15.1924 3.20634 6.64289
upperback 6.75103 5.10239 0.837222
thorax -0.804039 2.65206 -3.61855
lowerneck -1.29691 -13.0735 -5.16035
upperneck 8.47772 -20.4133 28.0049
head 6.42554 -9.23148 8.22183
rclavicle -4.37326e-015 4.85035e-014
rhumerus 66.1771 9.66722 19.6474
rradius 127.535
rwrist -74.82
rhand 72.5099 99.2714
rfingers 7.12502
rthumb 72.5053 -23.824
lclavicle -4.37326e-015 4.85035e-014
lhumerus -37.5717 -55.199 102.121
lradius 98.0419
lwrist 38.8468
lhand -16.4422 -20.2654
lfingers 7.12502
lthumb 9.7735 9.4878
rfemur -21.3887 15.6233 27.3573
rtibia 9.05121
rfoot -11.7944 -24.2737
rtoes 2.33711
lfemur -20.7724 -38.9497 12.5602
ltibia -1.3571
lfoot -12.3283 48.6071
ltoes 2.59874
793
root -0.243175 17.7587 8.14481 19.9451 7.21587 -12.7135
lowerback 15.138 3.07566 6.39061
upperback 6.64523 4.90319 0.958695
thorax -0.945382 2.53917 -3.32667
lowerneck -1.35318 -12.9751 -5.32745
upperneck 8.78423 -20.3231 27.7864
head 6.50334 -9.16794 8.185
rclavicle 3.43897e-014 2.8625e-014
rhumerus 66.7088 9.47697 19.8091
rradius 128.155
rwrist -74.475
rhand 71.6688 99.1626
rfingers 7.12502
rthumb 72.9166 -26.0726
lclavicle 3.43897e-014 2.8625e-014
lhumerus -37.694 -54.9213 102.591
lradius 98.0381
lwrist 38.7164
lhand -16.6498 -20.0163
lfingers 7.12502
lthumb 9.5732 9.74624
rfemur -21.4061 15.6618 27.2198
rtibia 9.07093
rfoot -11.8035 -24.2326
rtoes 2.27748
lfemur -20.7207 -38.9291 12.375
ltibia -1.33996
lfoot -12.036 48.6171
ltoes 2.13361
794
root -0.239062 17.7554 8.13868 19.9437 6.99085 -12.7081
lowerback 14.8959 3.00633 6.26521
upperback 6.62834 4.78288 1.07004
thorax -0.869365 2.47773 -3.10861
lowerneck -1.19487 -12.9297 -5.57504
upperneck 8.76871 -20.2265 27.6413
head 6.4571 -9.14944 8.19786
rclavicle -4.83047e-014 -6.75868e-015
rhumerus 67.1913 9.30107 20.0089
rradius 128.56
rwrist -73.9516
rhand 71.6361 99.0435
rfingers 7.12502
rthumb 72.932 -26.0475
lclavicle -4.83047e-014 -6.75868e-015
lhumerus -37.5125 -54.8117 102.86
lradius 97.905
lwrist 38.5925
lhand -16.8083 -19.3403
lfingers 7.12502
lthumb 9.42034 10.4292
rfemur -21.4407 15.769 27.1492
rtibia 9.10019
rfoot -11.7989 -24.0963
rtoes 2.53138
lfemur -20.5767 -38.8952 12.2376
ltibia -1.37036
lfoot -11.9098 48.7364
ltoes 1.93136
795
root -0.236764 17.756 8.12776 19.8657 6.82443 -12.6323
lowerback 14.8564 3.11915 6.47923
upperback 6.61522 4.95234 0.95528
thorax -0.814058 2.56933 -3.36695
lowerneck -0.840062 -13.1636 -5.34661
upperneck 8.24559 -20.414 27.6313
head 6.23746 -9.30854 8.15163
rclavicle 2.18663e-014 -1.78906e-015
rhumerus 66.8177 9.42569 20.0273
rradius 128.739
rwrist -73.4057
rhand 71.9138 99.1778
rfingers 7.12502
rthumb 72.8 -25.3894
lclavicle 2.18663e-014 -1.78906e-015
lhumerus -37.4429 -55.6666 103.169
lradius 97.8079
lwrist 38.6353
lhand -16.6214 -19.2266
lfingers 7.12502
lthumb 9.6006 10.5346
rfemur -21.3885 15.7982 27.0351
rtibia 9.10411
rfoot -11.8177 -24.0115
rtoes 2.5484
lfemur -20.4075 -38.7343 11.9547
ltibia -1.33877
lfoot -12.0069 48.6133
ltoes 2.14675
